<svg width="98" height="98" viewBox="0 0 98 98" fill="none" xmlns="http://www.w3.org/2000/svg">
<circle cx="49" cy="49" r="49" fill="url(#paint0_linear_622_263)"/>
<path fill-rule="evenodd" clip-rule="evenodd" d="M40.163 16.458L47.6858 12.337H47.6748C48.4996 11.8877 49.5004 11.8877 50.3252 12.337L57.848 16.458L55.1974 21.2586L49.0056 17.8609L42.8135 21.2586L40.163 16.458ZM27.5874 29.4592L27.592 29.4676V29.4567L27.5874 29.4592ZM24.9415 24.6671L27.5874 29.4592L24.1826 31.3309L27.779 33.3036L25.1285 38.1043L21.4991 36.1205V40.5482H16V31.1884C16 30.191 16.5389 29.2704 17.4188 28.7881L24.9415 24.6671ZM80.5702 28.7881L73.0476 24.6671L70.397 29.4676L73.8284 31.3418L70.243 33.3036L72.8936 38.1043L76.5009 36.1314V40.5482H82V31.1774C82 30.18 81.4501 29.2594 80.5813 28.7771L80.5702 28.7881ZM72.9264 59.3888L76.4898 61.3397V56.9996H81.9889V66.3594C81.9889 67.346 81.4499 68.2665 80.5811 68.7488L73.0585 72.9466L70.3749 68.1679L73.9273 66.1842L70.2758 64.1895L72.9264 59.3888ZM49.0056 80.1363L42.8135 76.7387L40.163 81.5392L47.6858 85.6602C48.1037 85.8904 48.5546 86 49.0056 86C49.4564 86 49.9183 85.8904 50.3252 85.6602L57.848 81.5392L55.1974 76.7387L49.0056 80.1363ZM21.4991 61.3726L25.1285 59.3888L27.779 64.1895L24.1276 66.1842L27.592 68.0803L24.9415 72.8808L17.4188 68.7598C16.5499 68.2776 16 67.3569 16 66.3594V56.9996H21.4991V61.3726Z" fill="white"/>
<defs>
<linearGradient id="paint0_linear_622_263" x1="48.9999" y1="6.44737e-08" x2="48.9999" y2="98" gradientUnits="userSpaceOnUse">
<stop stop-color="#A495FF"/>
<stop offset="1" stop-color="#524793"/>
</linearGradient>
</defs>
</svg>
